<?xml version="1.0" standalone="no"?>
<!DOCTYPE svg PUBLIC "-//W3C//DTD SVG 20010904//EN"
 "http://www.w3.org/TR/2001/REC-SVG-20010904/DTD/svg10.dtd">
<svg version="1.0" xmlns="http://www.w3.org/2000/svg"
 width="603.000000pt" height="603.000000pt" viewBox="0 0 603.000000 603.000000"
 preserveAspectRatio="xMidYMid meet">
<metadata>
Created by potrace 1.11, written by Peter Selinger 2001-2013
</metadata>
<g transform="translate(0.000000,603.000000) scale(0.100000,-0.100000)"
fill="#000000" stroke="none">
<path d="M2785 5760 c-281 -26 -602 -170 -707 -316 -23 -32 -34 -41 -36 -30
-2 9 -7 16 -12 16 -9 0 -74 -81 -132 -167 l-36 -52 -6 34 c-4 19 -10 35 -14
35 -21 -1 -82 -129 -82 -171 0 -12 -10 -23 -26 -29 -35 -14 -131 -107 -159
-155 -32 -56 -58 -147 -44 -156 7 -4 4 -19 -10 -47 -32 -62 -68 -197 -80 -300
-11 -92 -6 -222 10 -222 4 0 14 28 23 63 l15 62 -7 -110 c-18 -290 8 -573 72
-769 26 -78 26 -80 7 -100 -32 -35 -46 -96 -45 -196 1 -174 66 -341 158 -410
53 -39 150 -79 176 -73 10 2 22 -10 34 -34 61 -129 185 -274 318 -373 78 -59
245 -149 355 -191 56 -21 62 -26 67 -59 6 -38 -4 -92 -23 -128 -17 -31 -69
-62 -107 -62 -29 0 -270 -77 -364 -116 -213 -89 -336 -198 -460 -407 -124
-209 -162 -333 -209 -692 -37 -273 -37 -275 -13 -275 12 0 23 -3 25 -7 3 -5
-1 -48 -9 -98 -17 -112 -17 -115 -1 -115 9 0 18 33 29 101 9 55 18 103 20 105
2 2 96 -4 209 -14 l204 -17 -4 -82 c-3 -77 -2 -83 17 -83 16 0 20 9 25 68 4
37 7 134 7 215 0 115 -3 148 -12 145 -7 -3 -14 -15 -15 -29 -1 -13 -5 -64 -9
-113 l-6 -89 -82 7 c-44 3 -147 11 -228 18 l-148 12 0 34 c0 37 27 201 65 389
46 228 138 463 240 618 106 160 256 252 575 355 l115 37 11 -42 c19 -70 75
-164 125 -209 52 -46 167 -106 255 -132 136 -39 329 -4 440 81 43 33 127 153
154 221 12 30 26 54 31 54 11 0 302 -103 376 -133 192 -78 359 -270 457 -523
55 -143 209 -661 202 -679 -2 -6 -21 -12 -42 -13 -22 -2 -111 -11 -199 -21
-88 -10 -161 -17 -163 -15 -2 1 -8 49 -13 106 -11 118 -15 136 -30 121 -7 -7
-8 -84 -3 -232 l7 -221 24 0 23 0 -6 94 c-7 94 -7 95 17 100 36 7 319 36 355
36 l30 0 19 -106 c17 -96 28 -125 42 -111 2 3 -1 38 -8 79 -7 40 -13 102 -14
138 -1 36 -9 90 -18 120 -10 30 -44 152 -76 270 -79 284 -102 352 -157 462
-101 202 -250 345 -444 427 -30 13 -127 48 -215 78 -88 30 -164 60 -170 66 -5
7 -30 17 -55 24 -104 27 -122 46 -119 122 0 20 -2 51 -6 69 -7 31 -6 33 36 50
86 33 255 121 316 164 129 91 283 256 352 380 26 45 39 58 64 64 118 25 207
99 267 221 71 147 78 273 20 381 -18 34 -39 62 -46 62 -24 0 -25 19 0 77 36
86 53 151 83 313 27 142 28 154 28 520 0 398 -4 442 -51 600 -64 212 -127 322
-267 467 -110 113 -208 181 -388 267 -165 78 -308 129 -438 156 -115 23 -349
33 -486 20z m-514 -1114 c71 -76 150 -126 197 -126 25 0 25 0 -7 30 -17 17
-31 32 -31 35 0 3 38 -16 85 -41 72 -39 95 -46 160 -51 42 -3 75 -2 75 3 0 5
-36 35 -80 67 -44 33 -80 61 -80 63 0 2 35 -14 78 -36 135 -69 338 -120 366
-93 3 4 -13 14 -36 23 -46 17 -170 88 -203 115 -21 17 -17 17 25 -2 260 -119
332 -145 455 -167 130 -24 162 -32 240 -60 39 -14 91 -28 115 -31 l45 -6 -65
62 -65 62 45 -25 c274 -152 275 -153 249 -169 -20 -12 -2 -11 22 1 19 11 19
12 -7 48 -19 25 -9 18 33 -24 91 -93 115 -130 133 -203 l17 -66 7 97 c4 53 4
103 0 110 -5 9 -4 10 4 3 18 -16 80 -245 87 -321 4 -38 0 -202 -8 -364 -8
-162 -15 -321 -15 -353 -2 -122 -68 -417 -119 -524 -55 -119 -127 -215 -238
-321 -113 -108 -198 -165 -340 -229 -291 -131 -528 -159 -743 -88 -91 31 -331
147 -418 203 -201 130 -358 360 -432 633 -23 86 -53 282 -52 342 0 23 -2 92
-6 152 -5 81 -1 170 15 335 42 431 62 518 137 590 25 25 64 72 87 105 22 33
60 82 84 108 23 27 57 80 75 117 18 38 35 69 36 69 2 1 35 -32 73 -73z m1043
-142 c26 -15 45 -28 42 -31 -5 -6 -42 13 -75 38 -33 26 -22 24 33 -7z m-1656
-1173 c17 -5 40 -17 49 -26 16 -16 31 -81 32 -137 1 -27 1 -27 -34 -12 -55 23
-135 15 -135 -13 0 -11 11 -14 48 -11 l47 3 -4 -74 c-3 -65 0 -81 25 -133 15
-32 34 -58 41 -58 18 0 17 9 -12 74 -39 88 -32 181 12 158 15 -9 22 -30 32
-96 7 -46 30 -136 51 -198 21 -62 37 -114 36 -115 -7 -7 -132 56 -163 82 -48
41 -100 144 -120 239 -17 83 -14 247 7 286 22 42 34 46 88 31z m2627 -21 c8
-6 24 -33 37 -58 33 -68 31 -182 -6 -277 -30 -79 -72 -148 -113 -187 -28 -27
-140 -84 -149 -76 -2 3 2 20 10 39 7 19 26 87 40 151 25 111 61 208 78 208 4
0 13 -18 19 -40 10 -31 10 -55 1 -104 -15 -80 -15 -86 2 -86 32 0 47 164 21
227 -8 19 -15 37 -15 39 0 2 18 11 40 20 39 16 55 44 25 44 -24 0 -98 -40
-118 -64 -17 -20 -18 -20 -13 -1 2 11 7 50 11 88 8 83 23 101 77 94 21 -3 45
-10 53 -17z m-1018 -1358 c9 -56 20 -87 43 -120 l31 -44 -41 -64 c-82 -125
-182 -190 -307 -201 -104 -8 -237 31 -302 90 -39 36 -121 149 -121 167 0 9 12
30 26 46 34 38 50 77 59 139 4 28 9 53 11 56 2 3 49 -5 106 -18 57 -12 136
-23 176 -23 68 0 249 32 282 50 21 12 24 7 37 -78z m171 -176 c6 -29 -68 -162
-125 -226 -55 -60 -104 -88 -209 -115 -118 -31 -227 -16 -359 49 -107 53 -165
107 -205 190 -39 82 -44 102 -26 109 9 4 22 -9 38 -39 29 -56 104 -145 145
-174 18 -12 60 -34 95 -48 54 -22 78 -26 168 -26 99 -1 109 1 171 31 80 40
153 111 210 204 36 61 45 70 68 67 16 -2 27 -10 29 -22z"/>
<path d="M2160 3920 c-61 -8 -121 -41 -181 -99 -56 -54 -65 -86 -21 -78 15 3
61 17 102 32 71 26 82 27 215 22 84 -3 164 -11 199 -21 32 -9 60 -15 62 -13 2
2 7 24 10 49 6 41 4 48 -17 62 -42 27 -285 58 -369 46z"/>
<path d="M3545 3918 c-114 -13 -217 -36 -227 -50 -9 -13 -5 -94 4 -104 3 -2
32 3 64 12 35 9 116 18 199 21 134 5 143 4 215 -22 105 -38 130 -42 130 -19 0
26 -92 109 -153 138 -63 30 -127 36 -232 24z"/>
<path d="M3563 3649 c-18 -5 -49 -29 -72 -56 -32 -38 -41 -58 -47 -100 -9 -78
2 -119 45 -166 35 -37 43 -41 100 -45 84 -6 160 29 186 88 23 51 17 172 -10
213 -34 52 -135 85 -202 66z m67 -64 c15 -18 5 -35 -20 -35 -23 0 -32 13 -24
34 8 20 28 21 44 1z"/>
<path d="M2190 3612 c-66 -30 -120 -114 -120 -187 0 -56 43 -139 84 -165 71
-43 193 -15 236 56 53 85 17 234 -68 282 -39 21 -100 28 -132 14z m68 -70 c4
-25 -23 -41 -40 -24 -7 7 -6 17 2 32 14 26 34 22 38 -8z"/>
<path d="M2915 3001 c-7 -13 15 -59 32 -65 22 -9 26 20 8 48 -18 27 -30 32
-40 17z"/>
<path d="M3134 2710 c-123 -43 -267 -49 -394 -15 -68 18 -80 18 -80 2 0 -7 32
-24 73 -37 108 -36 257 -34 387 6 67 21 96 34 98 47 4 22 -17 21 -84 -3z"/>
<path d="M2970 954 c0 -10 31 -33 58 -44 17 -8 22 -15 17 -30 -8 -25 16 -27
40 -4 12 12 19 13 29 5 10 -8 16 -9 21 -2 3 6 -6 13 -20 17 -26 6 -34 23 -12
25 27 3 43 -4 65 -27 13 -13 28 -24 35 -24 7 1 -6 16 -28 35 -43 37 -79 44
-105 20 -16 -14 -20 -14 -48 10 -28 24 -52 32 -52 19z"/>
<path d="M2770 862 c-19 -20 -46 -44 -60 -53 -14 -9 -22 -20 -19 -23 3 -3 23
8 45 24 21 16 56 33 76 36 46 8 57 31 22 44 -14 6 -26 10 -27 10 -1 0 -18 -17
-37 -38z"/>
<path d="M2790 812 c-14 -9 -27 -20 -30 -23 -3 -3 -14 -9 -26 -13 -30 -9 -72
-57 -74 -86 -1 -14 -2 -41 -1 -60 1 -30 5 -36 26 -38 16 -1 28 5 36 19 12 24
3 41 -11 19 -13 -21 -22 -6 -25 44 -4 50 11 69 83 106 40 21 58 37 51 45 -2 1
-15 -4 -29 -13z"/>
<path d="M2920 805 c0 -14 43 -26 59 -16 16 10 -2 26 -31 28 -17 0 -28 -4 -28
-12z"/>
<path d="M3267 759 c-9 -35 8 -45 35 -19 12 13 17 20 10 15 -8 -4 -18 0 -26
10 -12 17 -13 16 -19 -6z"/>
<path d="M3156 635 c-6 -16 19 -33 31 -21 4 3 -2 6 -13 6 -14 0 -16 2 -5 9 8
5 9 11 3 15 -5 3 -13 -1 -16 -9z"/>
<path d="M2673 567 c5 -15 37 -22 37 -9 0 5 -9 12 -21 15 -13 3 -19 1 -16 -6z"/>
<path d="M2755 555 c17 -13 35 -24 40 -25 6 0 -3 11 -20 25 -16 13 -34 24 -40
25 -5 0 4 -11 20 -25z"/>
<path d="M2847 531 c-19 -33 -14 -41 25 -41 19 0 28 5 28 16 0 13 -3 14 -15 4
-14 -12 -35 -6 -35 10 0 5 11 12 25 16 14 3 22 10 19 15 -10 17 -30 9 -47 -20z"/>
<path d="M2880 435 c0 -8 7 -15 16 -15 14 0 14 3 4 15 -7 8 -14 15 -16 15 -2
0 -4 -7 -4 -15z"/>
<path d="M2845 390 c-20 -22 -21 -21 16 -37 25 -11 27 -10 32 15 5 24 -6 41
-24 42 -3 0 -14 -9 -24 -20z"/>
<path d="M2957 385 c-10 -7 -15 -19 -11 -29 3 -9 -2 -28 -11 -42 -13 -20 -14
-28 -5 -34 8 -5 7 -11 -4 -22 -16 -16 -12 -28 9 -28 7 0 12 13 12 33 -1 34 20
87 35 87 10 0 11 37 0 44 -4 2 -15 -2 -25 -9z"/>
<path d="M3195 349 c-8 -37 5 -54 34 -44 35 11 22 75 -15 75 -7 0 -15 -14 -19
-31z"/>
<path d="M3100 305 c-19 -7 -50 -14 -67 -14 -41 -1 -45 -27 -5 -42 61 -24 146
7 139 51 -3 20 -25 22 -67 5z"/>
<path d="M2960 249 c0 -5 5 -7 10 -4 6 3 10 8 10 11 0 2 -4 4 -10 4 -5 0 -10
-5 -10 -11z"/>
</g>
</svg>
